<svg xmlns="http://www.w3.org/2000/svg" viewBox="0 0 334 305" width="334" height="305">
  <!-- LEFT (top mark) -->
  <g class="logo-mark">
    <path fill="currentColor" fill-rule="nonzero" d="M32.63 230.98C36.00 227.85 40.83 224.29 43.36 223.07C45.90 221.84 53.11 216.48 59.38 211.17C89.43 185.71 93.02 183.45 90.95 191.25C83.48 219.38 85.96 228.35 97.97 216.58C101.01 213.60 105.57 209.89 108.11 208.33C113.11 205.25 126.74 195.08 134.14 188.88C148.19 177.13 138.82 174.16 124.30 185.75C97.35 207.29 96.86 207.27 100.20 184.76C101.59 175.39 104.39 171.97 122.49 157.49C125.24 155.30 135.14 146.14 144.49 137.15C161.59 120.72 172.52 111.58 173.99 112.49C174.76 112.97 174.48 135.56 173.62 141.50C173.39 143.15 172.88 149.00 172.49 154.50C172.11 160.00 171.20 167.41 170.47 170.97C169.75 174.53 169.37 177.79 169.63 178.22C169.90 178.65 169.38 181.81 168.47 185.25C164.83 199.13 166.32 210.03 171.06 204.17C172.07 202.93 173.18 199.80 173.54 197.21C173.90 194.62 174.80 190.25 175.54 187.50C176.80 182.80 177.62 176.25 180.13 151.00C180.70 145.22 181.36 133.75 181.60 125.50C182.16 106.10 182.40 103.91 184.16 102.60C184.96 101.99 187.62 99.88 190.06 97.90C207.90 83.45 236.03 66.03 239.42 67.33C241.24 68.03 241.54 74.96 240.03 81.50C239.52 83.70 238.89 89.78 238.63 95.00C238.37 100.22 237.92 105.17 237.63 106.00C236.53 109.09 236.01 114.93 235.47 130.00C235.17 138.53 234.51 147.07 234.01 149.00C233.51 150.93 233.13 155.43 233.16 159.00C233.19 162.57 232.48 173.60 231.57 183.50C229.93 201.50 229.93 201.50 232.07 203.25C235.84 206.32 238.38 204.15 238.69 197.59C239.66 177.03 240.02 171.32 240.87 163.50C241.40 158.55 241.83 153.38 241.81 152.00C241.72 145.53 243.12 120.65 243.97 113.50C244.50 109.10 245.17 101.83 245.46 97.35C245.75 92.87 247.16 84.32 248.58 78.35C250.00 72.38 251.30 64.87 251.48 61.65C251.66 58.43 252.18 55.47 252.65 55.07C254.45 53.54 277.39 38.26 285.25 33.36C293.26 28.37 293.50 28.11 293.38 24.51C293.16 17.97 289.81 15.84 285.76 19.67C283.97 21.37 280.48 24.01 278.00 25.54C275.52 27.07 270.12 30.88 266.00 34.01C256.93 40.89 252.66 43.19 250.50 42.36C248.77 41.70 243.00 46.45 243.00 48.54C243.00 49.18 234.56 55.37 224.25 62.31C213.94 69.24 200.55 78.48 194.50 82.85C181.99 91.89 180.70 91.97 181.63 83.65C181.95 80.82 182.16 77.83 182.10 77.00C182.03 76.17 181.96 72.36 181.93 68.52C181.90 64.69 181.43 61.02 180.90 60.38C179.89 59.17 184.09 55.04 186.38 54.97C187.00 54.95 190.20 52.94 193.50 50.50C196.80 48.06 202.50 44.04 206.16 41.56C214.55 35.88 216.81 33.08 216.23 29.13C215.32 22.90 212.92 22.40 206.99 27.22C196.85 35.45 188.44 41.04 180.33 44.92C170.89 49.45 169.68 50.97 171.18 56.57C171.76 58.73 172.37 63.20 172.55 66.50C172.72 69.80 173.32 78.03 173.88 84.80C175.07 99.10 175.14 98.76 169.69 103.09C164.20 107.45 151.94 118.42 134.56 134.55C126.83 141.72 118.70 148.90 116.50 150.51C114.30 152.11 110.12 155.62 107.21 158.30C99.58 165.34 99.30 164.83 97.48 140.83C97.25 137.71 96.99 134.78 96.91 134.33C95.33 125.29 97.16 118.09 101.86 114.85C129.12 96.04 140.88 83.46 135.42 78.94C133.44 77.29 132.47 77.86 119.31 88.23C104.07 100.25 98.86 103.08 94.48 101.73C89.47 100.20 86.93 102.78 86.76 109.59C86.47 120.70 87.24 131.18 89.20 143.00C92.87 165.18 92.12 170.34 84.18 177.60C80.50 180.95 76.15 185.04 74.50 186.67C69.30 191.82 63.08 195.48 61.76 194.16C59.86 192.26 59.64 192.44 45.10 206.93C28.92 223.07 28.25 223.21 29.38 210.22C30.29 199.81 30.56 198.08 32.40 190.73C33.28 187.25 34.18 179.70 34.42 173.95C34.65 168.20 35.38 158.78 36.05 153.00C37.26 142.53 37.42 140.87 38.45 127.37C39.12 118.63 38.09 117.21 32.94 119.79C29.59 121.46 29.51 121.65 29.79 126.86C29.95 129.81 29.57 133.77 28.95 135.65C28.10 138.23 28.11 139.43 28.99 140.49C29.64 141.27 29.89 142.78 29.55 143.85C29.21 144.92 28.74 154.28 28.51 164.65C28.03 185.78 27.97 186.34 25.01 198.07C23.82 202.77 22.87 209.67 22.87 213.66C22.86 217.60 22.26 223.41 21.52 226.57C18.62 239.05 22.33 240.52 32.63 230.98Z"/>
  </g>

  <!-- INDUSTRIES (wordmark) -->
  <g class="logo-wordmark" transform="translate(10 215) scale(0.55)">
    <g transform="translate(0,148) scale(0.1,-0.1)" fill="currentColor" stroke="currentColor" stroke-width="20" stroke-linejoin="round" stroke-linecap="round">
      <path d="M4758 1378 c-21 -22 -38 -43 -38 -45 0 -3 -8 -17 -19 -31 -10 -15
-21 -44 -24 -66 -3 -21 -9 -41 -14 -45 -5 -3 -19 -27 -31 -52 -11 -26 -35 -62
-52 -80 -16 -18 -30 -37 -30 -41 0 -5 -6 -8 -14 -8 -9 0 -12 -7 -9 -20 3 -11
0 -20 -6 -20 -13 0 -14 -10 -2 -29 8 -12 16 -13 48 -3 82 25 212 52 227 46 32
-12 31 -80 -4 -151 -10 -21 -16 -42 -13 -47 3 -4 2 -11 -3 -15 -8 -5 -43 -91
-48 -116 -1 -6 -12 -28 -24 -48 -12 -21 -22 -43 -22 -48 0 -6 -11 -35 -25 -66
-21 -45 -29 -54 -46 -50 -16 4 -21 -1 -26 -24 -3 -16 -9 -29 -13 -29 -4 0 -11
-16 -14 -35 -4 -19 -11 -35 -17 -35 -6 0 -7 -4 -4 -10 31 -50 99 63 223 365
71 173 99 244 114 293 7 23 16 42 21 42 4 0 3 9 -3 21 -12 21 -34 21 -36 1 -1
-7 -2 -14 -3 -17 0 -3 -13 1 -28 8 -17 8 -60 14 -104 14 -42 0 -81 3 -87 7 -6
4 -3 20 9 43 10 21 19 43 19 50 0 7 3 13 8 13 4 0 25 35 47 77 22 42 48 86 58
97 44 50 56 73 45 84 -17 17 -19 16 -60 -30z"/>
      <path d="M4312 1403 c2 -4 -18 -35 -43 -68 -25 -33 -44 -66 -42 -72 3 -7 0
-13 -6 -13 -6 0 -11 -9 -11 -20 0 -11 -4 -20 -10 -20 -5 0 -10 -7 -10 -16 0
-8 -4 -12 -10 -9 -5 3 -10 -1 -10 -10 0 -8 -6 -25 -12 -37 -18 -30 -68 -83
-68 -72 0 5 -5 1 -11 -9 -5 -9 -7 -22 -4 -27 3 -6 -1 -13 -10 -16 -12 -5 -13
-9 -4 -20 9 -11 8 -14 -1 -14 -9 0 -8 -6 3 -23 10 -15 18 -61 22 -123 4 -54
12 -107 17 -118 5 -10 8 -27 5 -37 -3 -11 1 -23 10 -28 17 -9 24 -50 11 -67
-4 -5 -4 -23 1 -40 11 -43 54 -46 71 -5 6 16 36 54 66 83 33 32 69 82 94 131
22 44 49 92 60 106 12 18 16 32 10 41 -8 12 -12 11 -27 -5 -19 -20 -64 -110
-77 -152 -4 -13 -11 -23 -15 -23 -4 0 -22 -15 -41 -32 -40 -38 -82 -59 -97
-50 -33 21 -45 190 -16 213 9 8 43 50 76 94 32 44 65 83 73 88 16 9 7 37 -13
37 -14 0 -62 -48 -63 -64 0 -10 -80 -87 -80 -77 0 4 5 12 12 19 9 9 9 12 -3
12 -25 0 -39 34 -25 61 24 47 70 124 77 129 3 3 9 15 13 27 4 11 33 56 65 99
47 63 57 83 52 103 -4 14 -13 27 -19 29 -7 2 -11 0 -10 -5z"/>
      <path d="M3822 1265 c-22 -25 -47 -45 -54 -45 -7 0 -14 -10 -15 -22 -5 -63
-10 -74 -36 -91 -48 -30 -64 -112 -16 -86 17 9 23 8 30 -2 6 -10 9 -5 9 14 0
17 4 26 10 22 6 -4 10 -21 10 -38 0 -18 1 -48 4 -67 8 -60 15 -104 21 -130 3
-14 7 -45 9 -70 3 -25 7 -52 11 -61 4 -10 0 -19 -8 -22 -10 -3 -13 -14 -10
-31 6 -31 -19 -73 -53 -88 -34 -16 -34 -65 1 -74 34 -8 68 15 90 62 19 41 27
52 67 95 23 25 24 29 8 29 -10 0 -20 7 -24 15 -3 8 -12 12 -20 9 -20 -8 -23 1
-41 117 -24 158 -30 317 -12 338 16 18 49 79 45 84 -2 1 7 13 20 27 24 26 29
60 9 60 -8 0 -32 -20 -55 -45z"/>
      <path d="M3258 1168 c-19 -35 -25 -156 -14 -302 4 -51 2 -84 -5 -92 -11 -13
-14 -68 -11 -176 2 -55 3 -58 27 -58 14 0 26 3 26 8 2 11 8 121 8 165 1 35 3
38 24 32 72 -22 156 -89 212 -168 25 -35 59 -41 63 -11 4 25 -46 112 -68 119
-8 3 -44 32 -80 64 l-65 59 24 47 c25 48 39 59 106 86 45 18 74 62 58 88 -5 9
-27 19 -47 23 -21 4 -56 21 -79 37 -23 15 -66 40 -94 55 -29 14 -53 31 -53 36
0 18 -19 10 -32 -12z m122 -103 c14 -8 40 -22 58 -31 31 -17 47 -59 18 -48
-13 5 -96 -91 -96 -111 0 -15 -33 -45 -50 -45 -22 0 -39 72 -28 123 4 22 6 50
4 63 -3 13 0 24 5 24 5 0 9 9 9 20 0 25 42 27 80 5z"/>
      <path d="M3040 1146 c0 -9 -4 -16 -8 -16 -4 0 -54 -36 -111 -80 -56 -44 -100
-80 -96 -80 4 0 -12 -16 -35 -35 -23 -19 -39 -35 -35 -35 3 0 0 -7 -9 -15 -8
-8 -24 -15 -35 -15 -24 0 -27 -5 -36 -51 -6 -31 -4 -37 13 -41 16 -5 35 11 84
67 35 41 66 74 69 74 6 1 27 -90 35 -149 22 -170 24 -200 15 -250 -10 -59 -4
-74 25 -68 18 3 19 12 14 113 -7 151 -4 362 5 406 6 30 15 40 52 59 86 43 131
120 76 128 -16 2 -23 -2 -23 -12z"/>
      <path d="M2388 1032 c-27 -26 -48 -51 -48 -55 0 -5 -12 -21 -27 -37 -53 -53
-83 -92 -83 -106 0 -8 -4 -14 -9 -14 -5 0 -12 -11 -15 -25 -4 -14 -16 -35 -27
-46 -20 -20 -20 -21 -2 -36 10 -8 13 -12 6 -9 -15 8 -43 -3 -43 -18 1 -28 16
-36 49 -26 22 6 50 6 81 -1 38 -8 58 -7 95 5 42 15 125 22 125 12 0 -15 -79
-154 -84 -149 -3 4 -6 1 -6 -5 0 -10 -59 -111 -71 -122 -14 -12 -17 -39 -6
-55 18 -23 41 -10 57 33 14 41 65 124 100 162 12 14 41 50 63 80 22 30 46 59
54 63 18 11 17 42 -2 57 -10 8 -30 10 -58 6 -23 -3 -92 -9 -152 -12 -96 -6
-112 -4 -124 10 -12 14 -9 23 23 71 21 29 71 89 112 132 59 60 74 83 72 103
-5 39 -29 34 -80 -18z"/>
      <path d="M1953 1014 c-7 -16 -9 -35 -3 -52 24 -75 32 -473 10 -480 -6 -2 -30
-19 -54 -36 -23 -18 -57 -35 -76 -39 -19 -3 -42 -8 -51 -12 -14 -5 -16 20 -18
252 0 142 -1 266 -2 276 0 21 -25 23 -33 1 -3 -9 -6 -29 -6 -45 0 -16 -5 -29
-10 -29 -6 0 -8 12 -5 28 5 22 4 24 -5 10 -11 -18 2 -176 19 -220 8 -22 5 -78
-6 -108 -3 -8 -8 -55 -10 -105 -2 -49 -9 -106 -14 -125 -14 -52 -11 -68 12
-75 13 -5 28 0 42 12 42 36 115 83 130 83 19 0 137 78 137 91 0 5 6 9 14 9 24
0 37 25 27 52 -5 13 -11 73 -15 133 -11 210 -26 366 -36 385 -15 27 -33 25
-47 -6z m-206 -201 c-3 -10 -5 -4 -5 12 0 17 2 24 5 18 2 -7 2 -21 0 -30z"/>
      <path d="M965 960 c-3 -11 -13 -20 -22 -20 -11 0 -14 -7 -10 -22 3 -13 9 -75
12 -138 4 -63 13 -147 21 -186 9 -39 14 -90 12 -113 l-3 -42 -28 43 c-15 24
-31 54 -34 68 -4 14 -21 48 -40 77 -18 29 -33 56 -34 60 0 4 -26 46 -57 93
-46 68 -62 85 -82 85 -24 0 -25 -2 -22 -60 2 -33 8 -77 13 -98 13 -48 1 -248
-17 -302 -23 -68 -14 -105 27 -105 22 0 29 35 44 245 7 111 15 163 20 150 5
-11 19 -33 32 -49 13 -16 42 -67 64 -114 32 -67 56 -100 119 -163 44 -43 87
-79 95 -79 26 0 29 30 7 83 -27 68 -30 82 -36 145 -3 28 -12 75 -21 104 -10
36 -15 95 -15 193 0 96 -4 145 -12 153 -17 17 -26 15 -33 -8z"/>
      <path d="M1266 955 c-9 -13 -16 -29 -16 -34 0 -6 -7 -14 -16 -19 -25 -14 -37
-134 -23 -244 15 -120 15 -196 0 -283 -11 -67 -11 -71 10 -88 22 -17 23 -17
48 7 131 127 162 158 202 201 25 28 58 60 75 73 93 72 89 67 76 96 -7 15 -16
25 -20 22 -5 -3 -46 34 -93 81 -46 47 -109 103 -140 124 -49 33 -56 42 -52 63
4 21 1 26 -15 26 -11 0 -27 -11 -36 -25z m187 -221 c31 -40 57 -80 57 -89 0
-8 -18 -27 -40 -41 -22 -15 -40 -30 -40 -34 0 -6 -13 -21 -102 -117 -16 -18
-33 -33 -37 -33 -11 0 -21 256 -14 338 3 37 10 75 15 85 16 31 93 -21 161
-109z"/>
      <path d="M390 844 c-143 -66 -204 -101 -264 -152 -69 -57 -78 -75 -48 -91 23
-12 115 27 108 46 -6 16 72 68 151 101 66 28 82 28 56 0 -24 -26 -33 -56 -18
-58 12 -2 68 100 60 108 -5 6 -54 -5 -100 -23 -26 -9 33 33 63 45 13 6 32 6
46 0 21 -7 26 -6 31 10 7 23 -1 40 -18 39 -7 0 -37 -12 -67 -25z m-100 -84 c0
-5 -8 -10 -17 -10 -15 0 -16 2 -3 10 19 12 20 12 20 0z"/>
      <path d="M319 673 c-1 -5 0 -26 0 -48 1 -36 0 -38 -13 -22 -13 17 -14 15 -14
-15 0 -18 -3 -77 -7 -131 -4 -64 -2 -103 4 -111 8 -10 -1 -25 -36 -60 -26 -25
-53 -46 -60 -46 -7 0 -13 -6 -13 -12 -1 -19 -44 -65 -69 -73 -11 -3 -21 -11
-21 -17 0 -6 -7 -19 -15 -29 -14 -15 -14 -18 0 -33 24 -24 31 -21 88 33 63 58
185 138 247 160 65 24 78 33 85 62 11 45 -15 53 -71 22 -27 -14 -57 -33 -66
-41 -16 -13 -17 -7 -12 89 3 57 9 120 13 139 4 20 4 47 -1 60 -5 14 -7 32 -5
41 2 9 -4 21 -14 28 -11 6 -19 8 -20 4z m-12 -150 c-3 -10 -5 -4 -5 12 0 17 2
24 5 18 2 -7 2 -21 0 -30z m33 15 c0 -18 -2 -20 -9 -8 -6 8 -7 18 -5 22 9 14
14 9 14 -14z m-52 -314 c-2 -1 -16 -5 -32 -8 -22 -4 -25 -2 -16 8 6 8 20 12
31 9 11 -3 18 -7 17 -9z"/>
    </g>
  </g>
</svg>
